<svg width="150" height="121" viewBox="0 0 150 121" fill="none" xmlns="http://www.w3.org/2000/svg">
<rect y="51.63" width="4.47494" height="17.4676" rx="2.23747" fill="url(#paint0_linear_515_94)"/>
<rect x="145.525" y="51.63" width="4.47494" height="17.4676" rx="2.23747" fill="url(#paint1_linear_515_94)"/>
<rect x="97.5537" y="51.1663" width="4.47494" height="17.9314" rx="2.23747" fill="url(#paint2_linear_515_94)"/>
<rect x="6.98047" y="44.0555" width="4.47494" height="32.6166" rx="2.23747" fill="url(#paint3_linear_515_94)"/>
<rect x="48.5088" y="48.693" width="4.47494" height="23.3417" rx="2.23747" fill="url(#paint4_linear_515_94)"/>
<rect x="90.9307" y="49.0021" width="4.47494" height="23.3417" rx="2.23747" fill="url(#paint5_linear_515_94)"/>
<rect x="104.714" y="49.0021" width="4.47494" height="23.3417" rx="2.23747" fill="url(#paint6_linear_515_94)"/>
<rect x="138.723" y="45.6013" width="4.47494" height="30.2978" rx="2.23747" fill="url(#paint7_linear_515_94)"/>
<rect x="111.873" y="45.2922" width="4.47494" height="30.2978" rx="2.23747" fill="url(#paint8_linear_515_94)"/>
<rect x="118.496" y="40.3456" width="4.47494" height="40.3456" rx="2.23747" fill="url(#paint9_linear_515_94)"/>
<rect x="131.921" y="36.6356" width="4.47494" height="47.9201" rx="2.23747" fill="url(#paint10_linear_515_94)"/>
<rect x="125.119" y="24.5784" width="4.47494" height="71.8801" rx="2.23747" fill="url(#paint11_linear_515_94)"/>
<rect x="14.3193" y="40.5001" width="4.47494" height="40.0364" rx="2.23747" fill="url(#paint12_linear_515_94)"/>
<rect x="20.9424" y="36.3265" width="4.47494" height="48.0746" rx="2.23747" fill="url(#paint13_linear_515_94)"/>
<rect x="27.9238" y="31.9982" width="4.47494" height="55.8037" rx="2.23747" fill="url(#paint14_linear_515_94)"/>
<rect x="55.668" y="36.3265" width="4.47494" height="48.0746" rx="2.23747" fill="url(#paint15_linear_515_94)"/>
<rect x="62.6494" y="24.5784" width="4.47494" height="71.8801" rx="2.23747" fill="url(#paint16_linear_515_94)"/>
<rect x="76.79" y="26.5879" width="4.47494" height="67.861" rx="2.23747" fill="url(#paint17_linear_515_94)"/>
<rect x="84.1289" y="36.6356" width="4.47494" height="48.0746" rx="2.23747" fill="url(#paint18_linear_515_94)"/>
<rect x="69.8086" y="17.6222" width="4.47494" height="85.9469" rx="2.23747" fill="url(#paint19_linear_515_94)"/>
<rect x="34.5469" y="40.3456" width="4.47494" height="40.0364" rx="2.23747" fill="url(#paint20_linear_515_94)"/>
<rect x="41.5273" y="51.1663" width="4.47494" height="17.9314" rx="2.23747" fill="url(#paint21_linear_515_94)"/>
<path fill-rule="evenodd" clip-rule="evenodd" d="M34.7414 115.952C34.0979 118.273 31.6508 120 28.7302 120C25.319 120 22.5537 117.644 22.5537 114.737C22.5537 111.831 25.319 109.475 28.7302 109.475C31.4783 109.475 33.8071 111.004 34.6087 113.118H31.8385C31.1982 112.228 30.0457 111.634 28.7304 111.634C26.7187 111.634 25.0879 113.023 25.0879 114.737C25.0879 116.451 26.7187 117.841 28.7304 117.841C30.2363 117.841 31.5288 117.062 32.0835 115.952H34.7414Z" fill="#FC02FA"/>
<path fill-rule="evenodd" clip-rule="evenodd" d="M135.681 115.952C135.037 118.273 132.59 120 129.67 120C126.258 120 123.493 117.644 123.493 114.737C123.493 111.831 126.258 109.475 129.67 109.475C132.418 109.475 134.747 111.004 135.548 113.118H132.778C132.138 112.228 130.985 111.634 129.67 111.634C127.658 111.634 126.027 113.023 126.027 114.737C126.027 116.451 127.658 117.841 129.67 117.841C131.176 117.841 132.468 117.062 133.023 115.952H135.681Z" fill="#FC02FA"/>
<path fill-rule="evenodd" clip-rule="evenodd" d="M36.4223 109.88C36.1842 109.88 35.9912 110.073 35.9912 110.311V114.545C35.9912 114.783 36.1842 114.976 36.4223 114.976H42.4952C43.9027 114.976 45.0436 113.835 45.0436 112.428C45.0436 111.021 43.9027 109.88 42.4952 109.88H36.4223ZM38.547 111.437C38.4509 111.437 38.373 111.515 38.373 111.611V113.245C38.373 113.341 38.4509 113.419 38.547 113.419H41.0347C41.5821 113.419 42.0258 112.975 42.0258 112.428C42.0258 111.881 41.5821 111.437 41.0347 111.437H38.547Z" fill="#FC00FC" fill-opacity="0.988235"/>
<path fill-rule="evenodd" clip-rule="evenodd" d="M36.4525 114.41C36.1977 114.41 35.9912 114.617 35.9912 114.871V119.187C35.9912 119.442 36.1977 119.648 36.4525 119.648H43.0597C44.5062 119.648 45.6788 118.476 45.6788 117.029C45.6788 115.583 44.5062 114.41 43.0597 114.41H36.4525ZM38.5697 115.684C38.4611 115.684 38.373 115.772 38.373 115.881V117.753C38.373 117.861 38.4611 117.949 38.5697 117.949H41.3696C41.9951 117.949 42.5022 117.442 42.5022 116.817C42.5022 116.191 41.9951 115.684 41.3696 115.684H38.5697Z" fill="#FC02F6"/>
<path fill-rule="evenodd" clip-rule="evenodd" d="M59.1173 114.737C59.1173 117.644 56.389 120 53.0235 120C49.658 120 46.9297 117.644 46.9297 114.737C46.9297 111.831 49.658 109.475 53.0235 109.475C56.389 109.475 59.1173 111.831 59.1173 114.737ZM56.6173 114.67C56.6173 116.421 54.9733 117.841 52.9454 117.841C50.9174 117.841 49.2734 116.421 49.2734 114.67C49.2734 112.919 50.9174 111.499 52.9454 111.499C54.9733 111.499 56.6173 112.919 56.6173 114.67Z" fill="#FC00FC" fill-opacity="0.988235"/>
<path fill-rule="evenodd" clip-rule="evenodd" d="M88.961 120C92.3265 120 95.0548 117.644 95.0548 114.737C95.0548 111.831 92.3265 109.475 88.961 109.475C85.5955 109.475 82.8672 111.831 82.8672 114.737C82.8672 117.644 85.5955 120 88.961 120ZM88.8829 117.841C90.9108 117.841 92.5548 116.421 92.5548 114.67C92.5548 112.919 90.9108 111.499 88.8829 111.499C86.8549 111.499 85.2109 112.919 85.2109 114.67C85.2109 116.421 86.8549 117.841 88.8829 117.841Z" fill="#FC00FC" fill-opacity="0.988235"/>
<path fill-rule="evenodd" clip-rule="evenodd" d="M116.149 120C119.514 120 122.242 117.644 122.242 114.737C122.242 111.831 119.514 109.475 116.149 109.475C112.783 109.475 110.055 111.831 110.055 114.737C110.055 117.644 112.783 120 116.149 120ZM116.07 117.841C118.098 117.841 119.742 116.421 119.742 114.67C119.742 112.919 118.098 111.499 116.07 111.499C114.042 111.499 112.398 112.919 112.398 114.67C112.398 116.421 114.042 117.841 116.07 117.841Z" fill="#FC00FC" fill-opacity="0.988235"/>
<path d="M99.4297 119.595H96.3047L101.403 109.88H104.035L108.805 119.595H105.844L102.555 113.118L99.4297 119.595Z" fill="#FC00FC" fill-opacity="0.988235" stroke="#FC00FC" stroke-opacity="0.988235"/>
<path fill-rule="evenodd" clip-rule="evenodd" d="M62.6443 115.781L62.649 115.781L68.527 109.88H70.7616V119.621H68.6409L68.5766 113.7L68.572 113.7L62.7492 119.621H60.3662V109.88H62.5802L62.6443 115.781Z" fill="#FC00FC" fill-opacity="0.988235"/>
<path d="M72.401 112.544H74.8702C74.9642 111.543 76.5254 111.221 76.5254 111.221C76.5254 111.221 78.1975 111.19 78.5012 112.086C78.4839 113.115 77.2225 113.28 75.6483 113.422C72.7864 113.595 72.086 115.193 72.0859 116.694C72.0859 118.195 74.7997 119.545 76.5254 119.593C78.2512 119.64 82.1672 119.049 81.5525 116.132H79.285C78.9318 116.821 78.3272 117.223 76.8291 117.286C75.5451 117.286 74.8203 116.975 74.7248 116.46C74.6057 115.409 75.539 115.54 77.4891 115.229C80.1822 114.798 81.6466 114.087 81.344 111.829C81.052 110.214 79.8918 109.465 76.4678 109.34C73.2577 109.465 72.688 110.838 72.401 112.544Z" fill="#FC00FC" fill-opacity="0.988235" stroke="#FC00FC" stroke-opacity="0.988235"/>
<path d="M64.3506 106.506L63.1787 106.506C63.1787 107.614 63.8179 108.26 65.416 108.26C67.4401 108.26 67.801 107.614 67.8663 106.506H66.6944C66.6759 106.889 66.1617 107.245 65.5225 107.245C64.6702 107.245 64.3092 106.875 64.3506 106.506Z" fill="#FC00FC" fill-opacity="0.988235" stroke="#FC00FC" stroke-opacity="0.988235"/>
<path d="M76.1083 2.80565L74.4842 4.33793C73.6722 3.63072 73.1308 3.27712 71.7774 3.27712C69.8827 3.27712 68.6646 3.86646 68.5293 6.22382C68.5293 8.1097 69.612 9.05265 71.7774 9.05265C73.9429 9.05265 74.464 8.45227 74.4842 7.28463H71.7774V5.98808H77.3264C76.9223 9.19586 75.973 10.8207 71.3714 10.8207C67.9879 10.5849 66.2285 9.40625 66.2285 5.98808C66.2285 2.56991 68.1233 1.39124 71.7774 1.39124C74.3612 1.39124 75.2242 1.79996 76.1083 2.80565Z" fill="#FC00FC" fill-opacity="0.988235" stroke="#FC00FC" stroke-opacity="0.988235"/>
<path d="M94.8575 1.23669H92.3623V10.9753H99.7012V8.79692H94.8575V1.23669Z" fill="#FC00FC" fill-opacity="0.988235" stroke="#FC00FC" stroke-opacity="0.988235"/>
<path fill-rule="evenodd" clip-rule="evenodd" d="M84.3145 11.4527C87.6801 11.4527 90.4084 9.09651 90.4084 6.19007C90.4084 3.28363 87.6801 0.92749 84.3145 0.92749C80.949 0.92749 78.2207 3.28363 78.2207 6.19007C78.2207 9.09651 80.949 11.4527 84.3145 11.4527ZM84.2364 9.29365C86.2643 9.29365 87.9083 7.87393 87.9083 6.12261C87.9083 4.37129 86.2643 2.95157 84.2364 2.95157C82.2084 2.95157 80.5645 4.37129 80.5645 6.12261C80.5645 7.87393 82.2084 9.29365 84.2364 9.29365Z" fill="#FC00FC" fill-opacity="0.988235"/>
<path fill-rule="evenodd" clip-rule="evenodd" d="M54.0645 11.1434C57.4301 11.1434 60.1584 8.78731 60.1584 5.88087C60.1584 2.97442 57.4301 0.618286 54.0645 0.618286C50.699 0.618286 47.9707 2.97442 47.9707 5.88087C47.9707 8.78731 50.699 11.1434 54.0645 11.1434ZM53.9864 8.98449C56.0143 8.98449 57.6583 7.56476 57.6583 5.81345C57.6583 4.06213 56.0143 2.6424 53.9864 2.6424C51.9584 2.6424 50.3145 4.06213 50.3145 5.81345C50.3145 7.56476 51.9584 8.98449 53.9864 8.98449Z" fill="#FC00FC" fill-opacity="0.988235"/>
<path fill-rule="evenodd" clip-rule="evenodd" d="M106.868 11.1434C110.234 11.1434 112.962 8.78731 112.962 5.88087C112.962 2.97442 110.234 0.618286 106.868 0.618286C103.503 0.618286 100.774 2.97442 100.774 5.88087C100.774 8.78731 103.503 11.1434 106.868 11.1434ZM106.79 8.98449C108.818 8.98449 110.462 7.56476 110.462 5.81345C110.462 4.06213 108.818 2.6424 106.79 2.6424C104.762 2.6424 103.118 4.06213 103.118 5.81345C103.118 7.56476 104.762 8.98449 106.79 8.98449Z" fill="#FC00FC" fill-opacity="0.988235"/>
<path d="M38.5655 1.08208H35.4404L40.5392 10.7976H43.1708L47.9406 1.08208H44.98L41.6905 7.5591L38.5655 1.08208Z" fill="#FC00FC" fill-opacity="0.988235" stroke="#FC00FC" stroke-opacity="0.988235"/>
<path d="M35.1703 3.97692H32.7011C32.6071 2.97602 31.0459 2.65368 31.0459 2.65368C31.0459 2.65368 29.3737 2.62285 29.0701 3.51861C29.0874 4.54767 30.3488 4.71332 31.923 4.85527C34.7849 5.02781 35.4853 6.6259 35.4854 8.12707C35.4854 9.62823 32.7716 10.9781 31.0459 11.0257C29.3201 11.0732 25.4041 10.4817 26.0188 7.56537H28.2863C28.6395 8.25457 29.2441 8.65632 30.7421 8.7188C32.0262 8.7188 32.7509 8.40806 32.8464 7.89315C32.9656 6.84168 32.0323 6.97357 30.0822 6.66162C27.3891 6.23081 25.9247 5.51998 26.2273 3.26229C26.5193 1.64671 27.6795 0.897904 31.1035 0.772949C34.3135 0.897904 34.8833 2.27079 35.1703 3.97692Z" fill="#FC00FC" fill-opacity="0.988235" stroke="#FC00FC" stroke-opacity="0.988235"/>
<path d="M123.774 4.286H121.305C121.211 3.2851 119.649 2.96276 119.649 2.96276C119.649 2.96276 117.977 2.93193 117.674 3.82769C117.691 4.85675 118.952 5.0224 120.527 5.16436C123.388 5.33689 124.089 6.93499 124.089 8.43615C124.089 9.93731 121.375 11.2872 119.649 11.3347C117.924 11.3823 114.008 10.7908 114.622 7.87445H116.89C117.243 8.56366 117.848 8.9654 119.346 9.02788C120.63 9.02788 121.354 8.71714 121.45 8.20223C121.569 7.15076 120.636 7.28265 118.686 6.9707C115.993 6.53989 114.528 5.82906 114.831 3.57137C115.123 1.95579 116.283 1.20699 119.707 1.08203C122.917 1.20699 123.487 2.57987 123.774 4.286Z" fill="#FC00FC" fill-opacity="0.988235" stroke="#FC00FC" stroke-opacity="0.988235"/>
<rect x="61.9766" y="3.09167" width="2.23747" height="7.53581" fill="#FC00FC" fill-opacity="0.988235"/>
<ellipse cx="63.0954" cy="1.15936" rx="1.34248" ry="1.15936" fill="#FC00FC" fill-opacity="0.988235"/>
<defs>
<linearGradient id="paint0_linear_515_94" x1="2.23747" y1="51.63" x2="2.23747" y2="69.0976" gradientUnits="userSpaceOnUse">
<stop stop-color="#EF6C02"/>
<stop offset="0.130208" stop-color="#E68212"/>
<stop offset="0.229167" stop-color="#E58715"/>
<stop offset="0.3125" stop-color="#DF9B31"/>
<stop offset="0.40625" stop-color="#DEA94D"/>
<stop offset="0.494792" stop-color="#E4D487"/>
<stop offset="0.567708" stop-color="#E4D558"/>
<stop offset="0.640625" stop-color="#CBC20B"/>
<stop offset="0.71875" stop-color="#ADB911"/>
<stop offset="0.8125" stop-color="#83B113"/>
<stop offset="0.885417" stop-color="#74B017"/>
<stop offset="1" stop-color="#73AF19"/>
</linearGradient>
<linearGradient id="paint1_linear_515_94" x1="147.763" y1="51.63" x2="147.763" y2="69.0976" gradientUnits="userSpaceOnUse">
<stop stop-color="#EF6C02"/>
<stop offset="0.130208" stop-color="#E68212"/>
<stop offset="0.229167" stop-color="#E58715"/>
<stop offset="0.3125" stop-color="#DF9B31"/>
<stop offset="0.40625" stop-color="#DEA94D"/>
<stop offset="0.494792" stop-color="#E4D487"/>
<stop offset="0.567708" stop-color="#E4D558"/>
<stop offset="0.640625" stop-color="#CBC20B"/>
<stop offset="0.71875" stop-color="#ADB911"/>
<stop offset="0.8125" stop-color="#83B113"/>
<stop offset="0.885417" stop-color="#74B017"/>
<stop offset="1" stop-color="#73AF19"/>
</linearGradient>
<linearGradient id="paint2_linear_515_94" x1="99.7912" y1="51.1663" x2="99.7912" y2="69.0976" gradientUnits="userSpaceOnUse">
<stop stop-color="#EF6C02"/>
<stop offset="0.130208" stop-color="#E68212"/>
<stop offset="0.229167" stop-color="#E58715"/>
<stop offset="0.3125" stop-color="#DF9B31"/>
<stop offset="0.40625" stop-color="#DEA94D"/>
<stop offset="0.494792" stop-color="#E4D487"/>
<stop offset="0.567708" stop-color="#E4D558"/>
<stop offset="0.640625" stop-color="#CBC20B"/>
<stop offset="0.71875" stop-color="#ADB911"/>
<stop offset="0.8125" stop-color="#83B113"/>
<stop offset="0.885417" stop-color="#74B017"/>
<stop offset="1" stop-color="#73AF19"/>
</linearGradient>
<linearGradient id="paint3_linear_515_94" x1="9.21794" y1="44.0555" x2="9.21794" y2="76.6721" gradientUnits="userSpaceOnUse">
<stop stop-color="#EF6C02"/>
<stop offset="0.130208" stop-color="#E68212"/>
<stop offset="0.229167" stop-color="#E58715"/>
<stop offset="0.3125" stop-color="#DF9B31"/>
<stop offset="0.40625" stop-color="#DEA94D"/>
<stop offset="0.494792" stop-color="#E4D487"/>
<stop offset="0.567708" stop-color="#E4D558"/>
<stop offset="0.640625" stop-color="#CBC20B"/>
<stop offset="0.71875" stop-color="#ADB911"/>
<stop offset="0.8125" stop-color="#83B113"/>
<stop offset="0.885417" stop-color="#74B017"/>
<stop offset="1" stop-color="#73AF19"/>
</linearGradient>
<linearGradient id="paint4_linear_515_94" x1="50.7463" y1="48.693" x2="50.7463" y2="72.0347" gradientUnits="userSpaceOnUse">
<stop stop-color="#EF6C02"/>
<stop offset="0.130208" stop-color="#E68212"/>
<stop offset="0.229167" stop-color="#E58715"/>
<stop offset="0.3125" stop-color="#DF9B31"/>
<stop offset="0.40625" stop-color="#DEA94D"/>
<stop offset="0.494792" stop-color="#E4D487"/>
<stop offset="0.567708" stop-color="#E4D558"/>
<stop offset="0.640625" stop-color="#CBC20B"/>
<stop offset="0.71875" stop-color="#ADB911"/>
<stop offset="0.8125" stop-color="#83B113"/>
<stop offset="0.885417" stop-color="#74B017"/>
<stop offset="1" stop-color="#73AF19"/>
</linearGradient>
<linearGradient id="paint5_linear_515_94" x1="93.1681" y1="49.0021" x2="93.1681" y2="72.3438" gradientUnits="userSpaceOnUse">
<stop stop-color="#EF6C02"/>
<stop offset="0.130208" stop-color="#E68212"/>
<stop offset="0.229167" stop-color="#E58715"/>
<stop offset="0.3125" stop-color="#DF9B31"/>
<stop offset="0.40625" stop-color="#DEA94D"/>
<stop offset="0.494792" stop-color="#E4D487"/>
<stop offset="0.567708" stop-color="#E4D558"/>
<stop offset="0.640625" stop-color="#CBC20B"/>
<stop offset="0.71875" stop-color="#ADB911"/>
<stop offset="0.8125" stop-color="#83B113"/>
<stop offset="0.885417" stop-color="#74B017"/>
<stop offset="1" stop-color="#73AF19"/>
</linearGradient>
<linearGradient id="paint6_linear_515_94" x1="106.951" y1="49.0021" x2="106.951" y2="72.3438" gradientUnits="userSpaceOnUse">
<stop stop-color="#EF6C02"/>
<stop offset="0.130208" stop-color="#E68212"/>
<stop offset="0.229167" stop-color="#E58715"/>
<stop offset="0.3125" stop-color="#DF9B31"/>
<stop offset="0.40625" stop-color="#DEA94D"/>
<stop offset="0.494792" stop-color="#E4D487"/>
<stop offset="0.567708" stop-color="#E4D558"/>
<stop offset="0.640625" stop-color="#CBC20B"/>
<stop offset="0.71875" stop-color="#ADB911"/>
<stop offset="0.8125" stop-color="#83B113"/>
<stop offset="0.885417" stop-color="#74B017"/>
<stop offset="1" stop-color="#73AF19"/>
</linearGradient>
<linearGradient id="paint7_linear_515_94" x1="140.96" y1="45.6013" x2="140.96" y2="75.8992" gradientUnits="userSpaceOnUse">
<stop stop-color="#EF6C02"/>
<stop offset="0.130208" stop-color="#E68212"/>
<stop offset="0.229167" stop-color="#E58715"/>
<stop offset="0.3125" stop-color="#DF9B31"/>
<stop offset="0.40625" stop-color="#DEA94D"/>
<stop offset="0.494792" stop-color="#E4D487"/>
<stop offset="0.567708" stop-color="#E4D558"/>
<stop offset="0.640625" stop-color="#CBC20B"/>
<stop offset="0.71875" stop-color="#ADB911"/>
<stop offset="0.8125" stop-color="#83B113"/>
<stop offset="0.885417" stop-color="#74B017"/>
<stop offset="1" stop-color="#73AF19"/>
</linearGradient>
<linearGradient id="paint8_linear_515_94" x1="114.111" y1="45.2922" x2="114.111" y2="75.5901" gradientUnits="userSpaceOnUse">
<stop stop-color="#EF6C02"/>
<stop offset="0.130208" stop-color="#E68212"/>
<stop offset="0.229167" stop-color="#E58715"/>
<stop offset="0.3125" stop-color="#DF9B31"/>
<stop offset="0.40625" stop-color="#DEA94D"/>
<stop offset="0.494792" stop-color="#E4D487"/>
<stop offset="0.567708" stop-color="#E4D558"/>
<stop offset="0.640625" stop-color="#CBC20B"/>
<stop offset="0.71875" stop-color="#ADB911"/>
<stop offset="0.8125" stop-color="#83B113"/>
<stop offset="0.885417" stop-color="#74B017"/>
<stop offset="1" stop-color="#73AF19"/>
</linearGradient>
<linearGradient id="paint9_linear_515_94" x1="120.734" y1="40.3456" x2="120.734" y2="80.6912" gradientUnits="userSpaceOnUse">
<stop stop-color="#EF6C02"/>
<stop offset="0.130208" stop-color="#E68212"/>
<stop offset="0.229167" stop-color="#E58715"/>
<stop offset="0.3125" stop-color="#DF9B31"/>
<stop offset="0.40625" stop-color="#DEA94D"/>
<stop offset="0.494792" stop-color="#E4D487"/>
<stop offset="0.567708" stop-color="#E4D558"/>
<stop offset="0.640625" stop-color="#CBC20B"/>
<stop offset="0.71875" stop-color="#ADB911"/>
<stop offset="0.8125" stop-color="#83B113"/>
<stop offset="0.885417" stop-color="#74B017"/>
<stop offset="1" stop-color="#73AF19"/>
</linearGradient>
<linearGradient id="paint10_linear_515_94" x1="134.158" y1="36.6356" x2="134.158" y2="84.5557" gradientUnits="userSpaceOnUse">
<stop stop-color="#EF6C02"/>
<stop offset="0.130208" stop-color="#E68212"/>
<stop offset="0.229167" stop-color="#E58715"/>
<stop offset="0.3125" stop-color="#DF9B31"/>
<stop offset="0.40625" stop-color="#DEA94D"/>
<stop offset="0.494792" stop-color="#E4D487"/>
<stop offset="0.567708" stop-color="#E4D558"/>
<stop offset="0.640625" stop-color="#CBC20B"/>
<stop offset="0.71875" stop-color="#ADB911"/>
<stop offset="0.8125" stop-color="#83B113"/>
<stop offset="0.885417" stop-color="#74B017"/>
<stop offset="1" stop-color="#73AF19"/>
</linearGradient>
<linearGradient id="paint11_linear_515_94" x1="127.357" y1="24.5784" x2="127.357" y2="96.4585" gradientUnits="userSpaceOnUse">
<stop stop-color="#EF6C02"/>
<stop offset="0.130208" stop-color="#E68212"/>
<stop offset="0.229167" stop-color="#E58715"/>
<stop offset="0.3125" stop-color="#DF9B31"/>
<stop offset="0.40625" stop-color="#DEA94D"/>
<stop offset="0.494792" stop-color="#E4D487"/>
<stop offset="0.567708" stop-color="#E4D558"/>
<stop offset="0.640625" stop-color="#CBC20B"/>
<stop offset="0.71875" stop-color="#ADB911"/>
<stop offset="0.8125" stop-color="#83B113"/>
<stop offset="0.885417" stop-color="#74B017"/>
<stop offset="1" stop-color="#73AF19"/>
</linearGradient>
<linearGradient id="paint12_linear_515_94" x1="16.5568" y1="40.5001" x2="16.5568" y2="80.5366" gradientUnits="userSpaceOnUse">
<stop stop-color="#EF6C02"/>
<stop offset="0.130208" stop-color="#E68212"/>
<stop offset="0.229167" stop-color="#E58715"/>
<stop offset="0.3125" stop-color="#DF9B31"/>
<stop offset="0.40625" stop-color="#DEA94D"/>
<stop offset="0.494792" stop-color="#E4D487"/>
<stop offset="0.567708" stop-color="#E4D558"/>
<stop offset="0.640625" stop-color="#CBC20B"/>
<stop offset="0.71875" stop-color="#ADB911"/>
<stop offset="0.8125" stop-color="#83B113"/>
<stop offset="0.885417" stop-color="#74B017"/>
<stop offset="1" stop-color="#73AF19"/>
</linearGradient>
<linearGradient id="paint13_linear_515_94" x1="23.1799" y1="36.3265" x2="23.1799" y2="84.4012" gradientUnits="userSpaceOnUse">
<stop stop-color="#EF6C02"/>
<stop offset="0.130208" stop-color="#E68212"/>
<stop offset="0.229167" stop-color="#E58715"/>
<stop offset="0.3125" stop-color="#DF9B31"/>
<stop offset="0.40625" stop-color="#DEA94D"/>
<stop offset="0.494792" stop-color="#E4D487"/>
<stop offset="0.567708" stop-color="#E4D558"/>
<stop offset="0.640625" stop-color="#CBC20B"/>
<stop offset="0.71875" stop-color="#ADB911"/>
<stop offset="0.8125" stop-color="#83B113"/>
<stop offset="0.885417" stop-color="#74B017"/>
<stop offset="1" stop-color="#73AF19"/>
</linearGradient>
<linearGradient id="paint14_linear_515_94" x1="30.1613" y1="31.9982" x2="30.1613" y2="87.8018" gradientUnits="userSpaceOnUse">
<stop stop-color="#EF6C02"/>
<stop offset="0.130208" stop-color="#E68212"/>
<stop offset="0.229167" stop-color="#E58715"/>
<stop offset="0.3125" stop-color="#DF9B31"/>
<stop offset="0.40625" stop-color="#DEA94D"/>
<stop offset="0.494792" stop-color="#E4D487"/>
<stop offset="0.567708" stop-color="#E4D558"/>
<stop offset="0.640625" stop-color="#CBC20B"/>
<stop offset="0.71875" stop-color="#ADB911"/>
<stop offset="0.8125" stop-color="#83B113"/>
<stop offset="0.885417" stop-color="#74B017"/>
<stop offset="1" stop-color="#73AF19"/>
</linearGradient>
<linearGradient id="paint15_linear_515_94" x1="57.9054" y1="36.3265" x2="57.9054" y2="84.4012" gradientUnits="userSpaceOnUse">
<stop stop-color="#EF6C02"/>
<stop offset="0.130208" stop-color="#E68212"/>
<stop offset="0.229167" stop-color="#E58715"/>
<stop offset="0.3125" stop-color="#DF9B31"/>
<stop offset="0.40625" stop-color="#DEA94D"/>
<stop offset="0.494792" stop-color="#E4D487"/>
<stop offset="0.567708" stop-color="#E4D558"/>
<stop offset="0.640625" stop-color="#CBC20B"/>
<stop offset="0.71875" stop-color="#ADB911"/>
<stop offset="0.8125" stop-color="#83B113"/>
<stop offset="0.885417" stop-color="#74B017"/>
<stop offset="1" stop-color="#73AF19"/>
</linearGradient>
<linearGradient id="paint16_linear_515_94" x1="64.8869" y1="24.5784" x2="64.8869" y2="96.4585" gradientUnits="userSpaceOnUse">
<stop stop-color="#EF6C02"/>
<stop offset="0.130208" stop-color="#E68212"/>
<stop offset="0.229167" stop-color="#E58715"/>
<stop offset="0.3125" stop-color="#DF9B31"/>
<stop offset="0.40625" stop-color="#DEA94D"/>
<stop offset="0.494792" stop-color="#E4D487"/>
<stop offset="0.567708" stop-color="#E4D558"/>
<stop offset="0.640625" stop-color="#CBC20B"/>
<stop offset="0.71875" stop-color="#ADB911"/>
<stop offset="0.8125" stop-color="#83B113"/>
<stop offset="0.885417" stop-color="#74B017"/>
<stop offset="1" stop-color="#73AF19"/>
</linearGradient>
<linearGradient id="paint17_linear_515_94" x1="79.0275" y1="26.5879" x2="79.0275" y2="94.4489" gradientUnits="userSpaceOnUse">
<stop stop-color="#EF6C02"/>
<stop offset="0.130208" stop-color="#E68212"/>
<stop offset="0.229167" stop-color="#E58715"/>
<stop offset="0.3125" stop-color="#DF9B31"/>
<stop offset="0.40625" stop-color="#DEA94D"/>
<stop offset="0.494792" stop-color="#E4D487"/>
<stop offset="0.567708" stop-color="#E4D558"/>
<stop offset="0.640625" stop-color="#CBC20B"/>
<stop offset="0.71875" stop-color="#ADB911"/>
<stop offset="0.8125" stop-color="#83B113"/>
<stop offset="0.885417" stop-color="#74B017"/>
<stop offset="1" stop-color="#73AF19"/>
</linearGradient>
<linearGradient id="paint18_linear_515_94" x1="86.3664" y1="36.6356" x2="86.3664" y2="84.7103" gradientUnits="userSpaceOnUse">
<stop stop-color="#EF6C02"/>
<stop offset="0.130208" stop-color="#E68212"/>
<stop offset="0.229167" stop-color="#E58715"/>
<stop offset="0.3125" stop-color="#DF9B31"/>
<stop offset="0.40625" stop-color="#DEA94D"/>
<stop offset="0.494792" stop-color="#E4D487"/>
<stop offset="0.567708" stop-color="#E4D558"/>
<stop offset="0.640625" stop-color="#CBC20B"/>
<stop offset="0.71875" stop-color="#ADB911"/>
<stop offset="0.8125" stop-color="#83B113"/>
<stop offset="0.885417" stop-color="#74B017"/>
<stop offset="1" stop-color="#73AF19"/>
</linearGradient>
<linearGradient id="paint19_linear_515_94" x1="72.0461" y1="17.6222" x2="72.0461" y2="103.569" gradientUnits="userSpaceOnUse">
<stop stop-color="#EF6C02"/>
<stop offset="0.130208" stop-color="#E68212"/>
<stop offset="0.229167" stop-color="#E58715"/>
<stop offset="0.3125" stop-color="#DF9B31"/>
<stop offset="0.40625" stop-color="#DEA94D"/>
<stop offset="0.494792" stop-color="#E4D487"/>
<stop offset="0.567708" stop-color="#E4D558"/>
<stop offset="0.640625" stop-color="#CBC20B"/>
<stop offset="0.71875" stop-color="#ADB911"/>
<stop offset="0.8125" stop-color="#83B113"/>
<stop offset="0.885417" stop-color="#74B017"/>
<stop offset="1" stop-color="#73AF19"/>
</linearGradient>
<linearGradient id="paint20_linear_515_94" x1="36.7843" y1="40.3456" x2="36.7843" y2="80.382" gradientUnits="userSpaceOnUse">
<stop stop-color="#EF6C02"/>
<stop offset="0.130208" stop-color="#E68212"/>
<stop offset="0.229167" stop-color="#E58715"/>
<stop offset="0.3125" stop-color="#DF9B31"/>
<stop offset="0.40625" stop-color="#DEA94D"/>
<stop offset="0.494792" stop-color="#E4D487"/>
<stop offset="0.567708" stop-color="#E4D558"/>
<stop offset="0.640625" stop-color="#CBC20B"/>
<stop offset="0.71875" stop-color="#ADB911"/>
<stop offset="0.8125" stop-color="#83B113"/>
<stop offset="0.885417" stop-color="#74B017"/>
<stop offset="1" stop-color="#73AF19"/>
</linearGradient>
<linearGradient id="paint21_linear_515_94" x1="43.7648" y1="51.1663" x2="43.7648" y2="69.0976" gradientUnits="userSpaceOnUse">
<stop stop-color="#EF6C02"/>
<stop offset="0.130208" stop-color="#E68212"/>
<stop offset="0.229167" stop-color="#E58715"/>
<stop offset="0.3125" stop-color="#DF9B31"/>
<stop offset="0.40625" stop-color="#DEA94D"/>
<stop offset="0.494792" stop-color="#E4D487"/>
<stop offset="0.567708" stop-color="#E4D558"/>
<stop offset="0.640625" stop-color="#CBC20B"/>
<stop offset="0.71875" stop-color="#ADB911"/>
<stop offset="0.8125" stop-color="#83B113"/>
<stop offset="0.885417" stop-color="#74B017"/>
<stop offset="1" stop-color="#73AF19"/>
</linearGradient>
</defs>
</svg>
