<svg width="0" height="0" class="hidden">
  
<symbol  viewBox="0 0 50 53" fill="none" xmlns="http://www.w3.org/2000/svg" id="vk">
  <path d="M23.2138 0.806107C17.2452 1.26428 11.8009 3.79912 7.52613 8.1131C1.90322 13.7778 -0.793014 21.7988 0.203671 29.8556C1.44809 39.9295 8.32693 48.3194 17.7753 51.2887C25.0804 53.5855 33.2095 52.2229 39.4027 47.6709C47.0133 42.0716 50.9712 32.7831 49.7959 23.2745C48.5515 13.2006 41.6726 4.81068 32.2243 1.84146C29.4128 0.954865 26.1347 0.579994 23.2138 0.806107ZM25.1208 16.8065C26.3998 16.9374 27.0392 17.1457 27.3273 17.5325C27.4022 17.6396 27.5232 17.9014 27.5923 18.1156C27.7421 18.5678 27.7479 19.0855 27.6557 22.9532C27.5981 25.369 27.6326 26.1128 27.8228 26.6484C28.0475 27.2612 28.5429 27.5409 28.9808 27.3088C29.3783 27.0946 30.3058 26.0414 30.9108 25.1072C32.3107 22.9651 33.1634 21.305 34.1889 18.7404C34.3963 18.2346 34.6728 17.9014 34.9609 17.824C35.0761 17.7883 36.7065 17.7586 38.7114 17.7526L42.2545 17.7407L42.5541 17.8716C42.9401 18.0501 43.0899 18.2822 43.0899 18.7047C43.0899 19.508 42.2776 21.1562 40.8834 23.1734C40.6932 23.453 39.9731 24.4408 39.2875 25.375C37.7723 27.4338 37.4439 27.9158 37.2135 28.4156C36.9254 29.0463 36.9946 29.564 37.4497 30.1769C37.5822 30.3495 38.2505 31.0457 38.9361 31.724C40.8546 33.6221 41.7245 34.6218 42.4331 35.7167C42.9401 36.508 43.136 37.0912 43.0553 37.591C43.015 37.8647 42.75 38.192 42.4504 38.3526C42.0932 38.5371 41.5459 38.5728 38.5328 38.6145L35.681 38.6561L35.2201 38.4955C34.0448 38.0908 33.2613 37.4184 31.4811 35.2882C30.496 34.1101 29.7643 33.5329 29.2573 33.5269C28.7906 33.5269 28.1972 34.1696 27.9437 34.9669C27.7709 35.5024 27.7075 35.913 27.6557 36.8413C27.5923 37.9361 27.4656 38.192 26.8146 38.4717C26.5784 38.5788 23.6402 38.6145 22.8624 38.5312C21.3011 38.3526 19.8551 37.8469 18.4205 36.9722C16.3407 35.7107 15.0675 34.5801 13.7021 32.7831C11.3285 29.6533 9.70962 26.9875 7.74505 22.9651C6.98458 21.4002 6.0916 19.3771 5.94757 18.8951C5.80354 18.3953 6.01094 17.9847 6.48336 17.83C6.64467 17.7764 7.54341 17.7467 9.61744 17.7169L12.5268 17.6872L12.8667 17.8181C13.4025 18.0323 13.6272 18.306 13.9902 19.2164C14.3013 19.984 15.9778 23.459 16.502 24.4289C17.0378 25.4107 17.6082 26.2318 18.0979 26.7198C18.7028 27.3326 18.9736 27.4814 19.3999 27.4457C19.7629 27.41 19.8608 27.3267 20.0855 26.8209C20.6328 25.6011 20.7192 21.4775 20.2295 19.859C19.9472 18.9367 19.5267 18.5857 18.3629 18.3298C18.1613 18.2822 18.1613 18.2108 18.3456 17.9311C18.795 17.2647 19.5958 16.9434 21.1225 16.8125C21.9579 16.7411 24.4352 16.7351 25.1208 16.8065Z" fill="#45668E"/>
</symbol>

<symbol viewBox="0 0 33 33" fill="none" xmlns="http://www.w3.org/2000/svg" id="tg">
  <path d="M16.1581 0C7.23416 0 0 7.23416 0 16.1581C0 25.0821 7.23416 32.3162 16.1581 32.3162C25.0821 32.3162 32.3162 25.0821 32.3162 16.1581C32.3162 7.23416 25.0821 0 16.1581 0Z" fill="#40B3E0"/>
  <path d="M24.0199 9.29479L21.1339 23.8455C21.1339 23.8455 20.7303 24.8547 19.6203 24.3703L12.9604 19.2643L10.5387 18.0939L6.46207 16.7215C6.46207 16.7215 5.83645 16.4995 5.77586 16.0152C5.71539 15.5308 6.48227 15.2685 6.48227 15.2685L22.6878 8.91128C22.6878 8.91128 24.0199 8.32606 24.0199 9.29479" fill="white"/>
  <path d="M12.4489 23.6822C12.4489 23.6822 12.2545 23.664 12.0122 22.897C11.7701 22.1301 10.5391 18.0939 10.5391 18.0939L20.327 11.878C20.327 11.878 20.8921 11.5349 20.8719 11.878C20.8719 11.878 20.9728 11.9385 20.6701 12.221C20.3674 12.5037 12.981 19.1433 12.981 19.1433" fill="#D2E5F1"/>
  <path d="M15.5147 21.2221L12.8804 23.6238C12.8804 23.6238 12.6745 23.7801 12.4492 23.6822L12.9537 19.2209" fill="#B5CFE4"/>
</symbol>

<symbol viewBox="0 0 33 33" fill="none" xmlns="http://www.w3.org/2000/svg" id="inst">
  <path d="M0 16.1581C0 25.082 7.23423 32.3162 16.1581 32.3162C25.082 32.3162 32.3162 25.082 32.3162 16.1581C32.3162 7.23423 25.082 0 16.1581 0C7.23423 0 0 7.23423 0 16.1581Z" fill="#F00073"/>
  <path d="M16.1584 9.29092H19.592C20.3999 9.29092 20.8038 9.49289 21.1068 9.59388C21.5108 9.79586 21.8137 9.89685 22.1167 10.1998C22.4197 10.5028 22.6216 10.8057 22.7226 11.2097C22.8236 11.5126 22.9246 11.9166 23.0256 12.7245V16.1581V19.5917C23.0256 20.3996 22.8236 20.8036 22.7226 21.1065C22.5206 21.5105 22.4197 21.8134 22.1167 22.1164C21.8137 22.4194 21.5108 22.6213 21.1068 22.7223C20.8038 22.8233 20.3999 22.9243 19.592 23.0253C18.6831 23.0253 18.4811 23.0253 16.1584 23.0253C13.8357 23.0253 13.6337 23.0253 12.7248 23.0253C11.9169 23.0253 11.5129 22.8233 11.21 22.7223C10.806 22.5204 10.503 22.4194 10.2001 22.1164C9.89712 21.8134 9.69514 21.5105 9.59416 21.1065C9.49317 20.8036 9.39218 20.3996 9.29119 19.5917C9.29119 18.6828 9.29119 18.4808 9.29119 16.1581C9.29119 13.8354 9.29119 13.6334 9.29119 12.7245C9.29119 11.9166 9.49317 11.5126 9.59416 11.2097C9.79613 10.8057 9.89712 10.5028 10.2001 10.1998C10.503 9.89685 10.806 9.69487 11.21 9.59388C11.5129 9.49289 11.9169 9.3919 12.7248 9.29092H16.1584ZM16.1584 7.77609C13.8357 7.77609 13.6337 7.77609 12.7248 7.77609C11.8159 7.77609 11.21 7.97807 10.705 8.18005C10.2001 8.38202 9.69514 8.68499 9.1902 9.18993C8.68526 9.69487 8.48329 10.0988 8.18032 10.7047C7.97834 11.2097 7.87736 11.8156 7.77637 12.7245V16.1581V19.5917C7.77637 20.5006 7.97834 21.1065 8.18032 21.6115C8.3823 22.1164 8.68526 22.6213 9.1902 23.1263C9.69514 23.6312 10.0991 23.8332 10.705 24.1362C11.21 24.3381 11.8159 24.4391 12.7248 24.5401H16.1584H19.592C20.5009 24.5401 21.1068 24.3381 21.6118 24.1362C22.1167 23.9342 22.6216 23.6312 23.1266 23.1263C23.6315 22.6213 23.8335 22.2174 24.1365 21.6115C24.3384 21.1065 24.4394 20.5006 24.5404 19.5917C24.5404 18.6828 24.5404 18.3798 24.5404 16.1581C24.5404 13.9364 24.5404 13.6334 24.5404 12.7245C24.5404 11.8156 24.3384 11.2097 24.1365 10.7047C23.9345 10.1998 23.6315 9.69487 23.1266 9.18993C22.6216 8.68499 22.2177 8.48301 21.6118 8.18005C21.1068 7.97807 20.5009 7.87708 19.592 7.77609C18.6831 7.77609 18.4811 7.77609 16.1584 7.77609V7.77609Z" fill="white"/>
  <path d="M16.1579 11.8156C13.7342 11.8156 11.8154 13.7344 11.8154 16.1581C11.8154 18.5819 13.7342 20.5006 16.1579 20.5006C18.5816 20.5006 20.5004 18.5819 20.5004 16.1581C20.5004 13.7344 18.5816 11.8156 16.1579 11.8156ZM16.1579 18.9858C14.6431 18.9858 13.3303 17.7739 13.3303 16.1581C13.3303 14.6433 14.5421 13.3305 16.1579 13.3305C17.6727 13.3305 18.9856 14.5423 18.9856 16.1581C18.9856 17.673 17.6727 18.9858 16.1579 18.9858Z" fill="white"/>
  <path d="M20.6017 12.7245C21.1594 12.7245 21.6116 12.2724 21.6116 11.7146C21.6116 11.1569 21.1594 10.7047 20.6017 10.7047C20.0439 10.7047 19.5918 11.1569 19.5918 11.7146C19.5918 12.2724 20.0439 12.7245 20.6017 12.7245Z" fill="white"/>
</symbol>

<symbol viewBox="0 0 632 89" fill="none" xmlns="http://www.w3.org/2000/svg" id="mobile-logo">
  <path fill-rule="evenodd" clip-rule="evenodd" d="M68.0884 62.105C64.4936 77.1195 50.8222 88.2927 34.5059 88.2927C15.4488 88.2927 0 73.0506 0 54.2485C0 35.4465 15.4488 20.2043 34.5059 20.2043C49.8586 20.2043 62.8694 30.0968 67.3475 43.7735H51.8695C48.2923 38.0139 41.8539 34.1713 34.5057 34.1713C23.2669 34.1713 14.1561 43.1602 14.1561 54.2486C14.1561 65.337 23.2669 74.326 34.5057 74.326C42.9187 74.326 50.1392 69.289 53.2384 62.105H68.0884Z" fill="#FC02FA"/>
  <path fill-rule="evenodd" clip-rule="evenodd" d="M632 62.1048C628.405 77.1194 614.733 88.2927 598.417 88.2927C579.36 88.2927 563.911 73.0506 563.911 54.2485C563.911 35.4465 579.36 20.2043 598.417 20.2043C613.77 20.2043 626.78 30.0967 631.259 43.7733H615.781C612.203 38.0138 605.765 34.1712 598.417 34.1712C587.178 34.1712 578.067 43.1601 578.067 54.2485C578.067 65.337 587.178 74.3259 598.417 74.3259C606.83 74.3259 614.05 69.2889 617.15 62.1048H632Z" fill="#FC02FA"/>
  <path fill-rule="evenodd" clip-rule="evenodd" d="M77.4785 22.8232C76.1485 22.8232 75.0703 23.9014 75.0703 25.2315V53.386C75.0703 54.716 76.1485 55.7942 77.4785 55.7942H109.157C118.262 55.7942 125.643 48.4134 125.643 39.3087C125.643 30.204 118.262 22.8232 109.157 22.8232H77.4785ZM89.3508 32.8977C88.8141 32.8977 88.3791 33.3328 88.3791 33.8695V44.748C88.3791 45.2847 88.8141 45.7197 89.3508 45.7197H102.375C105.915 45.7197 108.786 42.8494 108.786 39.3087C108.786 35.768 105.915 32.8977 102.375 32.8977H89.3508Z" fill="#FC00FC" fill-opacity="0.988235"/>
  <path fill-rule="evenodd" clip-rule="evenodd" d="M77.6475 52.1307C76.2242 52.1307 75.0703 53.2846 75.0703 54.708V83.4403C75.0703 84.8637 76.2242 86.0175 77.6475 86.0175H112.248C121.606 86.0175 129.192 78.4317 129.192 69.0741C129.192 59.7166 121.606 52.1307 112.248 52.1307H77.6475ZM89.4775 60.3735C88.8709 60.3735 88.3791 60.8653 88.3791 61.472V73.9287C88.3791 74.5354 88.8709 75.0272 89.4775 75.0272H104.12C108.167 75.0272 111.447 71.7469 111.447 67.7003C111.447 63.6538 108.167 60.3735 104.12 60.3735H89.4775Z" fill="#FC02F6"/>
  <path fill-rule="evenodd" clip-rule="evenodd" d="M204.265 54.2485C204.265 73.0506 189.023 88.2927 170.221 88.2927C151.419 88.2927 136.177 73.0506 136.177 54.2485C136.177 35.4465 151.419 20.2043 170.221 20.2043C189.023 20.2043 204.265 35.4465 204.265 54.2485ZM177.769 72.7139C175.315 73.7519 172.617 74.326 169.785 74.326C169.784 74.326 169.784 74.326 169.784 74.326C169.076 74.326 168.377 74.2901 167.687 74.2201C164.279 73.8739 161.117 72.6934 158.41 70.886C152.9 67.208 149.271 60.9339 149.271 53.8122C149.271 45.315 154.437 38.0245 161.8 34.9104C164.254 33.8724 166.952 33.2983 169.785 33.2983C173.814 33.2983 177.572 34.46 180.742 36.4667C186.485 40.1025 190.298 46.512 190.298 53.8122C190.298 62.3093 185.132 69.5997 177.769 72.7139Z" fill="#FC00FC" fill-opacity="0.988235"/>
  <path fill-rule="evenodd" clip-rule="evenodd" d="M370.994 88.2927C389.796 88.2927 405.039 73.0506 405.039 54.2485C405.039 35.4465 389.796 20.2043 370.994 20.2043C352.192 20.2043 336.95 35.4465 336.95 54.2485C336.95 73.0506 352.192 88.2927 370.994 88.2927ZM370.558 74.326C381.887 74.326 391.072 65.1416 391.072 53.8122C391.072 42.4827 381.887 33.2983 370.558 33.2983C359.229 33.2983 350.044 42.4827 350.044 53.8122C350.044 65.1416 359.229 74.326 370.558 74.326Z" fill="#FC00FC" fill-opacity="0.988235"/>
  <path fill-rule="evenodd" clip-rule="evenodd" d="M522.884 88.2927C541.686 88.2927 556.928 73.0506 556.928 54.2485C556.928 35.4465 541.686 20.2043 522.884 20.2043C504.082 20.2043 488.84 35.4465 488.84 54.2485C488.84 73.0506 504.082 88.2927 522.884 88.2927ZM522.448 74.326C533.777 74.326 542.961 65.1416 542.961 53.8122C542.961 42.4827 533.777 33.2983 522.448 33.2983C511.118 33.2983 501.934 42.4827 501.934 53.8122C501.934 65.1416 511.118 74.326 522.448 74.326Z" fill="#FC00FC" fill-opacity="0.988235"/>
  <path d="M429.48 85.6741H412.021L440.507 22.8232H455.208L481.856 85.6741H465.316L446.939 43.7735L429.48 85.6741Z" fill="#FC00FC" fill-opacity="0.988235" stroke="#FC00FC" stroke-opacity="0.988235"/>
  <path fill-rule="evenodd" clip-rule="evenodd" d="M223.971 60.9983L224 60.9981L256.838 22.8232H269.322V85.8412H257.475L257.116 47.5361L257.088 47.5363L224.558 85.8412H211.247V22.8232H223.613L223.971 60.9983Z" fill="#FC00FC" fill-opacity="0.988235"/>
  <path d="M278.478 40.0584H292.272C292.797 33.5835 301.52 31.4982 301.52 31.4982C301.52 31.4982 310.861 31.2987 312.558 37.0935C312.461 43.7506 305.414 44.8222 296.62 45.7405C280.631 46.8567 276.718 57.1949 276.718 66.9061C276.717 76.6173 291.879 85.3497 301.52 85.6574C311.161 85.9651 333.038 82.1387 329.604 63.2724H316.936C314.963 67.731 311.585 70.3299 303.216 70.7341C296.043 70.7341 291.994 68.7239 291.46 65.3929C290.795 58.5908 296.009 59.444 306.903 57.426C321.949 54.639 330.13 50.0406 328.439 35.4353C326.808 24.984 320.327 20.1399 301.198 19.3315C283.264 20.1399 280.081 29.0212 278.478 40.0584Z" fill="#FC00FC" fill-opacity="0.988235" stroke="#FC00FC" stroke-opacity="0.988235"/>
  <path d="M233.508 1.00017L226.961 1.00029C226.961 8.16731 230.532 12.3481 239.46 12.3481C250.768 12.3481 252.784 8.16486 253.149 1H246.602C246.499 3.47917 243.626 5.77819 240.055 5.77819C235.293 5.77819 233.277 3.38636 233.508 1.00017Z" fill="#FC00FC" fill-opacity="0.988235" stroke="#FC00FC" stroke-opacity="0.988235"/>
</symbol>

<symbol viewBox="0 0 18 18" fill="none" xmlns="http://www.w3.org/2000/svg" id="close">
  <path d="M0.867264 0.160156L0.160156 0.867264L8.29195 8.99906L0.160297 17.1307L0.867403 17.8378L8.99906 9.70617L17.1307 17.8378L17.8378 17.1307L9.70617 8.99906L17.838 0.867264L17.1309 0.160156L8.99906 8.29195L0.867264 0.160156Z" fill="#fc00fc"/>
</symbol>









</svg>