<svg width="0" height="0" class="hidden">
  
<symbol viewBox="0 0 50 50" fill="none" xmlns="http://www.w3.org/2000/svg" id="vk">
<path d="M25 50C38.8071 50 50 38.8071 50 25C50 11.1929 38.8071 0 25 0C11.1929 0 0 11.1929 0 25C0 38.8071 11.1929 50 25 50Z" fill="#4D76A1"/>
<path fill-rule="evenodd" clip-rule="evenodd" d="M24.0551 35.9653H26.0173C26.0173 35.9653 26.61 35.9002 26.9126 35.574C27.1911 35.2745 27.1822 34.7121 27.1822 34.7121C27.1822 34.7121 27.1439 32.0792 28.3658 31.6915C29.5704 31.3096 31.1173 34.2361 32.7568 35.3614C33.9966 36.213 34.9387 36.0263 34.9387 36.0263L39.3226 35.9653C39.3226 35.9653 41.6159 35.824 40.5285 34.0209C40.4394 33.8734 39.8952 32.6871 37.269 30.2494C34.5203 27.698 34.8884 28.1107 38.1995 23.6974C40.2161 21.0097 41.0223 19.3689 40.7705 18.6661C40.5303 17.9967 39.0472 18.1736 39.0472 18.1736L34.1111 18.2044C34.1111 18.2044 33.7453 18.1545 33.4739 18.3167C33.2087 18.4758 33.038 18.8466 33.038 18.8466C33.038 18.8466 32.2568 20.9264 31.2149 22.6952C29.0169 26.4275 28.1381 26.6245 27.7789 26.3927C26.9433 25.8526 27.1519 24.2229 27.1519 23.0651C27.1519 19.4482 27.7005 17.9401 26.0837 17.5497C25.5471 17.42 25.1523 17.3345 23.7801 17.3207C22.0189 17.3024 20.5282 17.326 19.6842 17.7396C19.1226 18.0145 18.6895 18.6273 18.9533 18.6625C19.2795 18.7062 20.0184 18.8617 20.4101 19.3952C20.9159 20.0832 20.8981 21.6287 20.8981 21.6287C20.8981 21.6287 21.1887 25.8865 20.2194 26.4155C19.554 26.7782 18.6413 26.0375 16.6818 22.6515C15.6778 20.917 14.9197 18.9999 14.9197 18.9999C14.9197 18.9999 14.7736 18.6416 14.5129 18.4499C14.1964 18.2178 13.7544 18.1438 13.7544 18.1438L9.06391 18.1745C9.06391 18.1745 8.35978 18.1941 8.1013 18.5003C7.87135 18.7726 8.08303 19.3359 8.08303 19.3359C8.08303 19.3359 11.7552 27.9271 15.9131 32.2566C19.7256 36.226 24.0551 35.9653 24.0551 35.9653Z" fill="white"/>
</symbol>


<symbol viewBox="0 0 33 33" fill="none" xmlns="http://www.w3.org/2000/svg" id="tg">
  <path d="M16.1581 0C7.23416 0 0 7.23416 0 16.1581C0 25.0821 7.23416 32.3162 16.1581 32.3162C25.0821 32.3162 32.3162 25.0821 32.3162 16.1581C32.3162 7.23416 25.0821 0 16.1581 0Z" fill="#40B3E0"/>
  <path d="M24.0199 9.29479L21.1339 23.8455C21.1339 23.8455 20.7303 24.8547 19.6203 24.3703L12.9604 19.2643L10.5387 18.0939L6.46207 16.7215C6.46207 16.7215 5.83645 16.4995 5.77586 16.0152C5.71539 15.5308 6.48227 15.2685 6.48227 15.2685L22.6878 8.91128C22.6878 8.91128 24.0199 8.32606 24.0199 9.29479" fill="white"/>
  <path d="M12.4489 23.6822C12.4489 23.6822 12.2545 23.664 12.0122 22.897C11.7701 22.1301 10.5391 18.0939 10.5391 18.0939L20.327 11.878C20.327 11.878 20.8921 11.5349 20.8719 11.878C20.8719 11.878 20.9728 11.9385 20.6701 12.221C20.3674 12.5037 12.981 19.1433 12.981 19.1433" fill="#D2E5F1"/>
  <path d="M15.5147 21.2221L12.8804 23.6238C12.8804 23.6238 12.6745 23.7801 12.4492 23.6822L12.9537 19.2209" fill="#B5CFE4"/>
</symbol>

<symbol viewBox="0 0 33 33" fill="none" xmlns="http://www.w3.org/2000/svg" id="inst">
  <path d="M0 16.1581C0 25.082 7.23423 32.3162 16.1581 32.3162C25.082 32.3162 32.3162 25.082 32.3162 16.1581C32.3162 7.23423 25.082 0 16.1581 0C7.23423 0 0 7.23423 0 16.1581Z" fill="#F00073"/>
  <path d="M16.1584 9.29092H19.592C20.3999 9.29092 20.8038 9.49289 21.1068 9.59388C21.5108 9.79586 21.8137 9.89685 22.1167 10.1998C22.4197 10.5028 22.6216 10.8057 22.7226 11.2097C22.8236 11.5126 22.9246 11.9166 23.0256 12.7245V16.1581V19.5917C23.0256 20.3996 22.8236 20.8036 22.7226 21.1065C22.5206 21.5105 22.4197 21.8134 22.1167 22.1164C21.8137 22.4194 21.5108 22.6213 21.1068 22.7223C20.8038 22.8233 20.3999 22.9243 19.592 23.0253C18.6831 23.0253 18.4811 23.0253 16.1584 23.0253C13.8357 23.0253 13.6337 23.0253 12.7248 23.0253C11.9169 23.0253 11.5129 22.8233 11.21 22.7223C10.806 22.5204 10.503 22.4194 10.2001 22.1164C9.89712 21.8134 9.69514 21.5105 9.59416 21.1065C9.49317 20.8036 9.39218 20.3996 9.29119 19.5917C9.29119 18.6828 9.29119 18.4808 9.29119 16.1581C9.29119 13.8354 9.29119 13.6334 9.29119 12.7245C9.29119 11.9166 9.49317 11.5126 9.59416 11.2097C9.79613 10.8057 9.89712 10.5028 10.2001 10.1998C10.503 9.89685 10.806 9.69487 11.21 9.59388C11.5129 9.49289 11.9169 9.3919 12.7248 9.29092H16.1584ZM16.1584 7.77609C13.8357 7.77609 13.6337 7.77609 12.7248 7.77609C11.8159 7.77609 11.21 7.97807 10.705 8.18005C10.2001 8.38202 9.69514 8.68499 9.1902 9.18993C8.68526 9.69487 8.48329 10.0988 8.18032 10.7047C7.97834 11.2097 7.87736 11.8156 7.77637 12.7245V16.1581V19.5917C7.77637 20.5006 7.97834 21.1065 8.18032 21.6115C8.3823 22.1164 8.68526 22.6213 9.1902 23.1263C9.69514 23.6312 10.0991 23.8332 10.705 24.1362C11.21 24.3381 11.8159 24.4391 12.7248 24.5401H16.1584H19.592C20.5009 24.5401 21.1068 24.3381 21.6118 24.1362C22.1167 23.9342 22.6216 23.6312 23.1266 23.1263C23.6315 22.6213 23.8335 22.2174 24.1365 21.6115C24.3384 21.1065 24.4394 20.5006 24.5404 19.5917C24.5404 18.6828 24.5404 18.3798 24.5404 16.1581C24.5404 13.9364 24.5404 13.6334 24.5404 12.7245C24.5404 11.8156 24.3384 11.2097 24.1365 10.7047C23.9345 10.1998 23.6315 9.69487 23.1266 9.18993C22.6216 8.68499 22.2177 8.48301 21.6118 8.18005C21.1068 7.97807 20.5009 7.87708 19.592 7.77609C18.6831 7.77609 18.4811 7.77609 16.1584 7.77609V7.77609Z" fill="white"/>
  <path d="M16.1579 11.8156C13.7342 11.8156 11.8154 13.7344 11.8154 16.1581C11.8154 18.5819 13.7342 20.5006 16.1579 20.5006C18.5816 20.5006 20.5004 18.5819 20.5004 16.1581C20.5004 13.7344 18.5816 11.8156 16.1579 11.8156ZM16.1579 18.9858C14.6431 18.9858 13.3303 17.7739 13.3303 16.1581C13.3303 14.6433 14.5421 13.3305 16.1579 13.3305C17.6727 13.3305 18.9856 14.5423 18.9856 16.1581C18.9856 17.673 17.6727 18.9858 16.1579 18.9858Z" fill="white"/>
  <path d="M20.6017 12.7245C21.1594 12.7245 21.6116 12.2724 21.6116 11.7146C21.6116 11.1569 21.1594 10.7047 20.6017 10.7047C20.0439 10.7047 19.5918 11.1569 19.5918 11.7146C19.5918 12.2724 20.0439 12.7245 20.6017 12.7245Z" fill="white"/>
</symbol>

<symbol viewBox="0 0 632 89" fill="none" xmlns="http://www.w3.org/2000/svg" id="mobile-logo">
  <path fill-rule="evenodd" clip-rule="evenodd" d="M68.0884 62.105C64.4936 77.1195 50.8222 88.2927 34.5059 88.2927C15.4488 88.2927 0 73.0506 0 54.2485C0 35.4465 15.4488 20.2043 34.5059 20.2043C49.8586 20.2043 62.8694 30.0968 67.3475 43.7735H51.8695C48.2923 38.0139 41.8539 34.1713 34.5057 34.1713C23.2669 34.1713 14.1561 43.1602 14.1561 54.2486C14.1561 65.337 23.2669 74.326 34.5057 74.326C42.9187 74.326 50.1392 69.289 53.2384 62.105H68.0884Z" fill="#FC02FA"/>
  <path fill-rule="evenodd" clip-rule="evenodd" d="M632 62.1048C628.405 77.1194 614.733 88.2927 598.417 88.2927C579.36 88.2927 563.911 73.0506 563.911 54.2485C563.911 35.4465 579.36 20.2043 598.417 20.2043C613.77 20.2043 626.78 30.0967 631.259 43.7733H615.781C612.203 38.0138 605.765 34.1712 598.417 34.1712C587.178 34.1712 578.067 43.1601 578.067 54.2485C578.067 65.337 587.178 74.3259 598.417 74.3259C606.83 74.3259 614.05 69.2889 617.15 62.1048H632Z" fill="#FC02FA"/>
  <path fill-rule="evenodd" clip-rule="evenodd" d="M77.4785 22.8232C76.1485 22.8232 75.0703 23.9014 75.0703 25.2315V53.386C75.0703 54.716 76.1485 55.7942 77.4785 55.7942H109.157C118.262 55.7942 125.643 48.4134 125.643 39.3087C125.643 30.204 118.262 22.8232 109.157 22.8232H77.4785ZM89.3508 32.8977C88.8141 32.8977 88.3791 33.3328 88.3791 33.8695V44.748C88.3791 45.2847 88.8141 45.7197 89.3508 45.7197H102.375C105.915 45.7197 108.786 42.8494 108.786 39.3087C108.786 35.768 105.915 32.8977 102.375 32.8977H89.3508Z" fill="#FC00FC" fill-opacity="0.988235"/>
  <path fill-rule="evenodd" clip-rule="evenodd" d="M77.6475 52.1307C76.2242 52.1307 75.0703 53.2846 75.0703 54.708V83.4403C75.0703 84.8637 76.2242 86.0175 77.6475 86.0175H112.248C121.606 86.0175 129.192 78.4317 129.192 69.0741C129.192 59.7166 121.606 52.1307 112.248 52.1307H77.6475ZM89.4775 60.3735C88.8709 60.3735 88.3791 60.8653 88.3791 61.472V73.9287C88.3791 74.5354 88.8709 75.0272 89.4775 75.0272H104.12C108.167 75.0272 111.447 71.7469 111.447 67.7003C111.447 63.6538 108.167 60.3735 104.12 60.3735H89.4775Z" fill="#FC02F6"/>
  <path fill-rule="evenodd" clip-rule="evenodd" d="M204.265 54.2485C204.265 73.0506 189.023 88.2927 170.221 88.2927C151.419 88.2927 136.177 73.0506 136.177 54.2485C136.177 35.4465 151.419 20.2043 170.221 20.2043C189.023 20.2043 204.265 35.4465 204.265 54.2485ZM177.769 72.7139C175.315 73.7519 172.617 74.326 169.785 74.326C169.784 74.326 169.784 74.326 169.784 74.326C169.076 74.326 168.377 74.2901 167.687 74.2201C164.279 73.8739 161.117 72.6934 158.41 70.886C152.9 67.208 149.271 60.9339 149.271 53.8122C149.271 45.315 154.437 38.0245 161.8 34.9104C164.254 33.8724 166.952 33.2983 169.785 33.2983C173.814 33.2983 177.572 34.46 180.742 36.4667C186.485 40.1025 190.298 46.512 190.298 53.8122C190.298 62.3093 185.132 69.5997 177.769 72.7139Z" fill="#FC00FC" fill-opacity="0.988235"/>
  <path fill-rule="evenodd" clip-rule="evenodd" d="M370.994 88.2927C389.796 88.2927 405.039 73.0506 405.039 54.2485C405.039 35.4465 389.796 20.2043 370.994 20.2043C352.192 20.2043 336.95 35.4465 336.95 54.2485C336.95 73.0506 352.192 88.2927 370.994 88.2927ZM370.558 74.326C381.887 74.326 391.072 65.1416 391.072 53.8122C391.072 42.4827 381.887 33.2983 370.558 33.2983C359.229 33.2983 350.044 42.4827 350.044 53.8122C350.044 65.1416 359.229 74.326 370.558 74.326Z" fill="#FC00FC" fill-opacity="0.988235"/>
  <path fill-rule="evenodd" clip-rule="evenodd" d="M522.884 88.2927C541.686 88.2927 556.928 73.0506 556.928 54.2485C556.928 35.4465 541.686 20.2043 522.884 20.2043C504.082 20.2043 488.84 35.4465 488.84 54.2485C488.84 73.0506 504.082 88.2927 522.884 88.2927ZM522.448 74.326C533.777 74.326 542.961 65.1416 542.961 53.8122C542.961 42.4827 533.777 33.2983 522.448 33.2983C511.118 33.2983 501.934 42.4827 501.934 53.8122C501.934 65.1416 511.118 74.326 522.448 74.326Z" fill="#FC00FC" fill-opacity="0.988235"/>
  <path d="M429.48 85.6741H412.021L440.507 22.8232H455.208L481.856 85.6741H465.316L446.939 43.7735L429.48 85.6741Z" fill="#FC00FC" fill-opacity="0.988235" stroke="#FC00FC" stroke-opacity="0.988235"/>
  <path fill-rule="evenodd" clip-rule="evenodd" d="M223.971 60.9983L224 60.9981L256.838 22.8232H269.322V85.8412H257.475L257.116 47.5361L257.088 47.5363L224.558 85.8412H211.247V22.8232H223.613L223.971 60.9983Z" fill="#FC00FC" fill-opacity="0.988235"/>
  <path d="M278.478 40.0584H292.272C292.797 33.5835 301.52 31.4982 301.52 31.4982C301.52 31.4982 310.861 31.2987 312.558 37.0935C312.461 43.7506 305.414 44.8222 296.62 45.7405C280.631 46.8567 276.718 57.1949 276.718 66.9061C276.717 76.6173 291.879 85.3497 301.52 85.6574C311.161 85.9651 333.038 82.1387 329.604 63.2724H316.936C314.963 67.731 311.585 70.3299 303.216 70.7341C296.043 70.7341 291.994 68.7239 291.46 65.3929C290.795 58.5908 296.009 59.444 306.903 57.426C321.949 54.639 330.13 50.0406 328.439 35.4353C326.808 24.984 320.327 20.1399 301.198 19.3315C283.264 20.1399 280.081 29.0212 278.478 40.0584Z" fill="#FC00FC" fill-opacity="0.988235" stroke="#FC00FC" stroke-opacity="0.988235"/>
  <path d="M233.508 1.00017L226.961 1.00029C226.961 8.16731 230.532 12.3481 239.46 12.3481C250.768 12.3481 252.784 8.16486 253.149 1H246.602C246.499 3.47917 243.626 5.77819 240.055 5.77819C235.293 5.77819 233.277 3.38636 233.508 1.00017Z" fill="#FC00FC" fill-opacity="0.988235" stroke="#FC00FC" stroke-opacity="0.988235"/>
</symbol>

<symbol viewBox="0 0 18 18" fill="none" xmlns="http://www.w3.org/2000/svg" id="close">
  <path d="M0.867264 0.160156L0.160156 0.867264L8.29195 8.99906L0.160297 17.1307L0.867403 17.8378L8.99906 9.70617L17.1307 17.8378L17.8378 17.1307L9.70617 8.99906L17.838 0.867264L17.1309 0.160156L8.99906 8.29195L0.867264 0.160156Z" fill="#fc00fc"/>
</symbol>

<symbol viewBox="0 0 40 40" fill="none" xmlns="http://www.w3.org/2000/svg" id="micro">
  <path d="M37.2927 2.70744C34.1227 -0.462564 29.1347 -0.884564 25.684 1.6301L24.8487 0.794769L23.9287 1.7141L23.3093 2.33344L22.5333 3.1101L23.348 3.9241C22.002 5.70477 21.49 7.93677 21.774 10.1228L21.3713 10.9674L19.6527 13.0934L2.77933 33.9541L2.224 34.5094L3.09 35.3754L0 39.3041L0.696 40.0001L4.62667 36.9101L5.492 37.7754L6.04667 37.2208L26.9067 20.3474L29.032 18.6301L29.8787 18.2274C32.064 18.5101 34.2953 17.9988 36.0753 16.6541L36.8907 17.4694L37.6673 16.6928L38.2873 16.0728L39.2067 15.1534L38.3707 14.3174C40.8847 10.8661 40.462 5.87677 37.2927 2.70744M6.292 35.6808C6.22733 35.7454 6.12467 35.7454 6.06 35.6808L4.31867 33.9401C4.254 33.8768 4.25533 33.7728 4.31867 33.7088C4.38267 33.6448 4.486 33.6448 4.55 33.7088L6.292 35.4494C6.356 35.5141 6.35533 35.6174 6.292 35.6808M8.14666 33.5228C7.68533 33.9834 6.938 33.9834 6.47733 33.5228C6.32066 33.3668 6.22133 33.1754 6.17133 32.9761L8.45266 32.9748C8.40266 33.1754 8.30266 33.3668 8.14666 33.5228M6.172 32.4021C6.222 32.2021 6.322 32.0121 6.47733 31.8554C6.93866 31.3941 7.686 31.3941 8.14666 31.8554C8.30266 32.0121 8.40266 32.2028 8.45266 32.4034L6.172 32.4021ZM9.82 30.8374C9.63933 31.0181 9.34533 31.0181 9.164 30.8368C8.98333 30.6554 8.98333 30.3614 9.164 30.1814C9.34533 30.0001 9.63933 29.9994 9.82066 30.1808C10.002 30.3608 10.002 30.6554 9.82 30.8374M15.3347 26.9841L13.016 24.6648L17.7627 19.9188L20.082 22.2381L15.3347 26.9841ZM20.974 20.2074C20.3213 20.2068 19.7933 19.6794 19.794 19.0268C19.794 18.8054 19.8587 18.5994 19.9653 18.4228L21.5773 20.0361C21.4013 20.1428 21.196 20.2081 20.974 20.2074ZM21.9833 19.6301L20.3707 18.0174C20.548 17.9114 20.752 17.8468 20.9733 17.8468C21.626 17.8468 22.154 18.3748 22.154 19.0268C22.154 19.2481 22.0893 19.4534 21.9833 19.6301M26.954 19.4681L20.532 13.0468L21.4233 11.9454L28.0547 18.5788L26.954 19.4681ZM30.748 16.9901L23.0073 9.2501C22.9507 7.76077 23.3267 6.28277 24.1593 5.03477L34.9653 15.8408C33.7167 16.6741 32.238 17.0468 30.748 16.9901M36.7407 15.7654L24.236 3.2601L24.8553 2.64077L37.3607 15.1461L36.7407 15.7654ZM37.4327 13.3788L26.622 2.5681C29.5507 0.581436 33.7107 0.978103 36.3667 3.6341C39.022 6.28943 39.4193 10.4508 37.4327 13.3788" fill="#faf472"/>
  <path d="M36.4665 23.8441C36.0399 21.5088 33.8445 21.0608 33.8445 21.0608L29.7345 28.6534C29.6119 27.7741 28.9205 26.8461 27.8565 26.2694C26.3292 25.4421 24.6112 25.6574 24.0212 26.7481C23.4305 27.8394 24.1899 29.3934 25.7179 30.2214C27.2465 31.0474 28.9632 30.8334 29.5532 29.7421L32.8332 23.6834C33.1805 23.6781 33.6979 23.8854 34.4085 24.6994C35.8972 26.4061 37.9185 26.5988 37.9185 26.5988C37.9185 26.5988 36.8365 25.8734 36.4665 23.8441" fill="#faf472"/>
  <path d="M7.30311 17.8661C9.83978 18.0701 12.0131 16.7654 12.1584 14.9534L12.9631 4.89276C13.4238 4.68009 14.2398 4.65076 15.6758 5.32276C18.6804 6.72476 21.5024 5.78876 21.5024 5.78876C21.5024 5.78876 19.6218 5.45609 17.9251 2.95743C15.9711 0.0780953 12.7638 0.777428 12.7638 0.777428L11.7544 13.3881C11.0698 12.2808 9.59444 11.4461 7.82644 11.3048C5.29045 11.1021 3.11711 12.4068 2.97245 14.2194C2.82778 16.0308 4.76511 17.6641 7.30311 17.8661" fill="#faf472"/>
  <path d="M15.3789 25.781L14.2221 24.6242L14.454 24.3922L15.6108 25.5491L15.3789 25.781Z" fill="#faf472"/>
  <path d="M15.8062 25.3509L14.6492 24.1933L14.8812 23.9615L16.0381 25.1191L15.8062 25.3509Z" fill="#faf472"/>
  <path d="M16.2349 24.9231L15.0771 23.7653L15.309 23.5334L16.4668 24.6911L16.2349 24.9231Z" fill="#faf472"/>
  <path d="M16.8984 24.2614L16.6673 24.4931L15.5079 23.337L15.739 23.1052L16.8984 24.2614Z" fill="#faf472"/>
  <path d="M13.7329 24.5981L15.4016 26.2661L19.3649 22.3034L17.6962 20.6348L13.7329 24.5981ZM15.4016 26.0348L13.9656 24.5988L15.7156 22.8488L17.1509 24.2848L15.4016 26.0348Z" fill="#faf472"/>
</symbol>

<symbol viewBox="0 0 40 40" fill="none" xmlns="http://www.w3.org/2000/svg" id="music-note">
  <path d="M35.1996 6.84445C33.0663 3.17778 23.4218 2.40001 22.3329 2.30001L21.1107 2.22223V24.7667C20.8282 24.5383 20.5272 24.3339 20.2107 24.1556C19.0947 23.5938 17.8765 23.2639 16.6295 23.1856C15.3826 23.1073 14.1327 23.2823 12.9552 23.7C8.37739 25.1778 5.43294 29.4 6.3885 33.1111C6.60146 33.896 6.97379 34.6286 7.48228 35.2632C7.99078 35.8979 8.62453 36.421 9.34405 36.8C10.5776 37.4581 11.9572 37.7944 13.3552 37.7778C14.4802 37.7768 15.5979 37.5968 16.6663 37.2445C20.7774 35.9222 23.5552 32.3889 23.3996 29V9.43334C24.5107 9.56667 26.0329 9.80001 27.6441 10.1445C29.2389 10.3869 30.7712 10.9379 32.1552 11.7667C33.2663 12.5 32.5774 13.8778 32.5218 13.9889C31.9907 14.7953 31.3722 15.5406 30.6774 16.2111C30.4753 16.4115 30.3578 16.6818 30.3491 16.9663C30.3405 17.2507 30.4413 17.5277 30.6308 17.74C30.8203 17.9523 31.0841 18.0838 31.3677 18.1074C31.6514 18.131 31.9332 18.0448 32.1552 17.8667C32.3885 17.6111 38.3329 12.2222 35.1996 6.84445Z" fill="#fc00fc"/>
</symbol>

<symbol viewBox="0 0 20 20" fill="none" xmlns="http://www.w3.org/2000/svg" id="teacher-arrow-next">
  <path d="M4.6154 5.38464V14.6154C4.6154 14.8194 4.53435 15.0151 4.39009 15.1594C4.24583 15.3036 4.05018 15.3847 3.84616 15.3847C3.64215 15.3847 3.44649 15.3036 3.30223 15.1594C3.15797 15.0151 3.07693 14.8194 3.07693 14.6154V5.38464C3.07693 5.18063 3.15797 4.98497 3.30223 4.84071C3.44649 4.69645 3.64215 4.61541 3.84616 4.61541C4.05018 4.61541 4.24583 4.69645 4.39009 4.84071C4.53435 4.98497 4.6154 5.18063 4.6154 5.38464ZM0.769233 4.61541C0.56522 4.61541 0.369564 4.69645 0.225305 4.84071C0.0810467 4.98497 2.04009e-06 5.18063 0 5.38464V14.6154C0 14.8194 0.0810441 15.0151 0.225303 15.1594C0.369562 15.3036 0.565219 15.3847 0.769233 15.3847C0.973246 15.3847 1.1689 15.3036 1.31316 15.1594C1.45742 15.0151 1.53847 14.8194 1.53847 14.6154V5.38464C1.53846 5.18063 1.45742 4.98497 1.31316 4.84071C1.1689 4.69645 0.973245 4.61541 0.769233 4.61541ZM19.7748 9.45612L10.544 0.225326C10.4364 0.11774 10.2993 0.044471 10.1501 0.0147851C10.0009 -0.0149007 9.84623 0.000329712 9.70567 0.0585504C9.5651 0.116771 9.44496 0.215367 9.36044 0.34187C9.27591 0.468373 9.23079 0.6171 9.23079 0.769244V4.61541H6.92309C6.71908 4.61541 6.52342 4.69645 6.37917 4.84071C6.23491 4.98497 6.15386 5.18063 6.15386 5.38464V14.6154C6.15386 14.8194 6.23491 15.0151 6.37917 15.1594C6.52342 15.3036 6.71908 15.3847 6.92309 15.3847H9.23079V19.2308C9.23079 19.383 9.27591 19.5317 9.36044 19.6582C9.44496 19.7847 9.5651 19.8833 9.70567 19.9415C9.84623 19.9997 10.0009 20.015 10.1501 19.9853C10.2993 19.9556 10.4364 19.8823 10.544 19.7747L19.7748 10.544C19.919 10.3997 20 10.204 20 10C20 9.79604 19.919 9.6004 19.7748 9.45612Z" fill="#faf472"/>
</symbol>

<symbol viewBox="0 0 21 20" fill="none" xmlns="http://www.w3.org/2000/svg" id="teacher-arrow-prev">
  <path d="M15.3905 14.6156V5.38481C15.3905 5.1808 15.4715 4.98514 15.6158 4.84088C15.76 4.69663 15.9557 4.61558 16.1597 4.61558C16.3637 4.61558 16.5594 4.69663 16.7036 4.84088C16.8479 4.98514 16.9289 5.1808 16.9289 5.38481V14.6156C16.9289 14.8196 16.8479 15.0153 16.7036 15.1595C16.5594 15.3038 16.3637 15.3848 16.1597 15.3848C15.9557 15.3848 15.76 15.3038 15.6158 15.1595C15.4715 15.0153 15.3905 14.8196 15.3905 14.6156ZM19.2366 15.3848C19.4406 15.3848 19.6363 15.3038 19.7806 15.1595C19.9248 15.0153 20.0059 14.8196 20.0059 14.6156V5.38481C20.0059 5.1808 19.9248 4.98514 19.7806 4.84088C19.6363 4.69663 19.4406 4.61558 19.2366 4.61558C19.0326 4.61558 18.837 4.69663 18.6927 4.84088C18.5484 4.98514 18.4674 5.1808 18.4674 5.38481V14.6156C18.4674 14.8196 18.5484 15.0153 18.6927 15.1595C18.837 15.3038 19.0326 15.3848 19.2366 15.3848ZM0.231081 10.5441L9.46187 19.7749C9.56945 19.8825 9.70652 19.9558 9.85574 19.9855C10.005 20.0151 10.1596 19.9999 10.3002 19.9417C10.4408 19.8835 10.5609 19.7849 10.6454 19.6584C10.73 19.5319 10.7751 19.3831 10.7751 19.231V15.3848H13.0828C13.2868 15.3848 13.4824 15.3038 13.6267 15.1595C13.771 15.0153 13.852 14.8196 13.852 14.6156V5.38481C13.852 5.1808 13.771 4.98515 13.6267 4.84089C13.4824 4.69663 13.2868 4.61558 13.0828 4.61558H10.7751V0.769419C10.7751 0.617275 10.73 0.468547 10.6454 0.342045C10.5609 0.215542 10.4408 0.116946 10.3002 0.0587249C10.1596 0.000504159 10.005 -0.0147259 9.85574 0.0149599C9.70652 0.0446458 9.56945 0.117915 9.46187 0.225501L0.231081 9.45629C0.0868714 9.60057 0.00586067 9.79622 0.00586067 10.0002C0.00586067 10.2042 0.0868714 10.3998 0.231081 10.5441Z" fill="#faf472"/>
</symbol>

<symbol viewBox="0 0 40 40" fill="none" xmlns="http://www.w3.org/2000/svg" id="review-arrow-next">
  <path d="M0 20C0 31.0452 8.95481 40 20 40C31.0452 40 40 31.0452 40 20C40 8.95481 31.0452 0 20 0C8.95481 0 0 8.95481 0 20ZM21.5385 12.299L15.425 18.4615H29.8077V21.5385H15.425L21.5385 27.701L19.3558 29.8683L9.56346 20L19.3558 10.1317L21.5385 12.299Z" fill="#fc00fc"/>
</symbol>

<symbol viewBox="0 0 40 40" fill="none" xmlns="http://www.w3.org/2000/svg" id="review-arrow-prev">
<path d="M40 20C40 8.95481 31.0452 -7.15256e-07 20 -7.15256e-07C8.95481 -7.15256e-07 -7.15256e-07 8.95481 -7.15256e-07 20C-7.15256e-07 31.0452 8.95481 40 20 40C31.0452 40 40 31.0452 40 20ZM18.4615 27.701L24.575 21.5385H10.1923V18.4615H24.575L18.4615 12.299L20.6442 10.1317L30.4365 20L20.6442 29.8683L18.4615 27.701Z" fill="#fc00fc"/>
</symbol>

<symbol viewBox="0 0 24 24" fill="none" xmlns="http://www.w3.org/2000/svg" id="footer-phone">
<path d="M20.7413 17.2182L20.6113 17.0562C19.5823 15.7552 18.7223 15.0782 17.9843 14.9892C17.3463 14.9022 16.7293 15.3432 16.0733 15.7972L15.3723 16.2352C15.2883 16.2772 15.2053 16.3112 15.1273 16.3342C14.7173 16.4502 13.6823 16.5182 13.0963 15.9822C12.4143 15.3582 11.3563 14.2162 10.5333 13.2182C9.7473 12.1852 8.8833 10.8972 8.4323 10.0862C8.0513 9.39923 8.3703 8.43823 8.5833 8.08223C8.6253 8.01223 8.6803 7.94323 8.7413 7.87523L9.3593 7.30423C9.3683 7.29523 9.3723 7.28423 9.3803 7.27623C9.3863 7.27023 9.3963 7.27223 9.4033 7.26723C9.9613 6.79623 10.5383 6.31123 10.6173 5.68823C10.7103 4.95623 10.2553 3.96623 9.2243 2.66623L9.0983 2.50423C8.4603 1.68623 7.4953 0.449229 6.1093 0.653229C5.5643 0.734229 5.0773 0.920229 4.5753 1.23523C4.5703 1.23823 4.5673 1.24423 4.5633 1.24723C4.5593 1.25023 4.5543 1.25023 4.5503 1.25323L3.8513 1.77123C3.8443 1.77523 3.8403 1.78423 3.8333 1.79023C3.8283 1.79523 3.8203 1.79623 3.8143 1.80123C3.7333 1.86923 3.6523 1.93923 3.5723 2.01123C2.8633 2.64323 1.3283 4.47823 2.3753 7.87223C3.0513 10.0642 4.4453 12.6222 6.4163 15.2842L6.3973 15.3002L7.4843 16.6542L7.4933 16.6472C9.6303 19.1752 11.8053 21.1292 13.7983 22.3122C15.1283 23.1022 16.2903 23.3632 17.2463 23.3632C18.5043 23.3632 19.4053 22.9112 19.8573 22.6172L20.1413 22.4272C20.1733 22.4052 20.1963 22.3742 20.2193 22.3462L20.8383 21.8802C20.8453 21.8742 20.8493 21.8662 20.8563 21.8602C20.8593 21.8572 20.8643 21.8582 20.8683 21.8552C21.3083 21.4532 21.6133 21.0322 21.8253 20.5332C22.3743 19.2542 21.3913 18.0292 20.7413 17.2182ZM21.0903 20.2192C20.9253 20.6072 20.6843 20.9372 20.3363 21.2572L19.4153 21.9502C18.5813 22.4922 16.7983 23.1622 14.2083 21.6242C12.2153 20.4412 10.0213 18.4412 7.8623 15.8402L7.2783 15.1022C5.2453 12.4062 3.8153 9.82423 3.1403 7.63623C2.2633 4.79123 3.3683 3.26523 4.1083 2.60623C4.1833 2.53823 4.2583 2.47523 4.3323 2.41223L4.3353 2.40923L5.0063 1.91223C5.4143 1.65423 5.7923 1.51023 6.2273 1.44423C7.1563 1.30423 7.9123 2.28423 8.4673 2.99623L8.5973 3.16123C9.7493 4.61423 9.8603 5.30523 9.8243 5.58723C9.7843 5.90023 9.3083 6.30123 8.8883 6.65423L8.8293 6.70423C8.8273 6.70623 8.8263 6.70923 8.8243 6.71123C8.8213 6.71323 8.8183 6.71423 8.8153 6.71623L8.1763 7.30723C8.1723 7.31123 8.1703 7.31623 8.1663 7.32123C8.1623 7.32623 8.1543 7.32823 8.1503 7.33323C8.0513 7.44423 7.9663 7.55523 7.8973 7.67023C7.5383 8.27123 7.1993 9.51323 7.7343 10.4742C8.2013 11.3142 9.0903 12.6412 9.9073 13.7132C10.7613 14.7492 11.8503 15.9252 12.5563 16.5702C13.0853 17.0532 13.8213 17.2152 14.4583 17.2152C14.7993 17.2152 15.1123 17.1682 15.3493 17.1012C15.4743 17.0652 15.6033 17.0132 15.7363 16.9482C15.7443 16.9442 15.7483 16.9372 15.7563 16.9322C15.7603 16.9302 15.7663 16.9312 15.7703 16.9282L16.5123 16.4642C16.5363 16.4482 16.5523 16.4272 16.5723 16.4072L16.5813 16.4172C17.0383 16.1002 17.5593 15.7282 17.8853 15.7822C18.1743 15.8172 18.8303 16.0952 19.9843 17.5522L20.1173 17.7192C20.6793 18.4202 21.4493 19.3802 21.0903 20.2192Z" fill="#faf472"/>
</symbol>

<symbol viewBox="0 0 24 25" fill="none" xmlns="http://www.w3.org/2000/svg" id="time">
<path d="M12 24.7887C5.38351 24.7887 0 19.2289 0 12.3944C0 5.55984 5.38351 0 12 0C18.6165 0 24 5.55969 24 12.3944C24 19.229 18.6165 24.7887 12 24.7887ZM12 1.1442C5.99344 1.1442 1.10756 6.19108 1.10756 12.3944C1.10756 18.5976 5.99344 23.6445 12 23.6445C18.0066 23.6445 22.8924 18.5976 22.8924 12.3944C22.8924 6.19108 18.0066 1.1442 12 1.1442Z" fill="#faf472"/>
<path d="M17.3063 15.2645L11.4297 12.5683V4.05225H12.5372V11.8242L17.7563 14.2185L17.3063 15.2645Z" fill="#faf472"/>
</symbol>

<symbol viewBox="0 0 24 24" fill="none" xmlns="http://www.w3.org/2000/svg" id="footer-placeholder">
<path d="M12.0004 3.95996C10.3778 3.95996 9.05762 5.28016 9.05762 6.90273C9.05762 8.52529 10.3774 9.84549 12.0004 9.84549C13.6234 9.84549 14.9432 8.52529 14.9432 6.90273C14.9432 5.28016 13.6229 3.95996 12.0004 3.95996ZM12.0004 8.98658C10.8515 8.98658 9.91653 8.05159 9.91653 6.90273C9.91653 5.75386 10.8515 4.81887 12.0004 4.81887C13.1492 4.81887 14.0842 5.75386 14.0842 6.90273C14.0842 8.05159 13.1492 8.98658 12.0004 8.98658Z" fill="#faf472"/>
<path d="M17.1924 2.15035C15.8057 0.76357 13.9624 0 12.001 0C10.0396 0 8.19581 0.76357 6.80859 2.15035C4.96531 3.99372 4.23863 6.70884 4.91208 9.23722C5.11696 10.0069 10.9483 22.3491 11.6128 23.754C11.6841 23.9042 11.8352 24 12.001 24C12.1668 24 12.3183 23.9042 12.3892 23.754C13.0531 22.3491 18.8833 10.0069 19.0886 9.23807C19.7612 6.70927 19.035 3.9933 17.1924 2.15035ZM18.2585 9.01641C18.1051 9.55926 14.5684 17.1258 12.001 22.5651C9.43274 17.1254 5.89517 9.55841 5.74223 9.01641C5.147 6.78313 5.78862 4.38492 7.41589 2.75808C8.64075 1.53364 10.2689 0.859338 12.001 0.859338C13.7327 0.859338 15.3604 1.53364 16.5852 2.75808C18.2117 4.38492 18.8528 6.78313 18.2585 9.01641Z" fill="#faf472"/>
</symbol>











</svg>